<svg xmlns="http://www.w3.org/2000/svg" width="231.5" height="59.502" viewBox="0 0 231.5 59.502">
  <path id="Subtraction_1" data-name="Subtraction 1" d="M-1784.332,58.5l-133.168,0V22.662a6.546,6.546,0,0,0,4.209,1.569,6.129,6.129,0,0,0,3.8-1.324,5.39,5.39,0,0,0,1.945-2.983,3.541,3.541,0,0,0-.283-2.4,4.3,4.3,0,0,0-2.148-1.9,4.187,4.187,0,0,1-3.268,1.72,2.586,2.586,0,0,1-2.838-2.709,2.9,2.9,0,0,1,1.279-2.532,5.823,5.823,0,0,1,3.279-.823c2.66,0,5.2,1.068,7.665,2.1,2.476,1.039,5.036,2.113,7.729,2.113v.043a15.1,15.1,0,0,0-8.03,2.629,8.517,8.517,0,0,0-3.451,7.176c0,4.757,2.81,8.968,5.29,12.683,1.823,2.731,3.4,5.09,3.4,7.054a3.28,3.28,0,0,1-.516,1.805l.129.258A48.353,48.353,0,0,0-1886.5,36.034c2.861-3.584,6.272-9.116,6.272-15.115a8.283,8.283,0,0,0-1.946-5.756,5.683,5.683,0,0,0-4.2-1.854,5.375,5.375,0,0,0-3.714,1.457,5.261,5.261,0,0,0-1.618,3.875,3.846,3.846,0,0,0,.919,2.709,4.075,4.075,0,0,0,2.822,1.161,3.727,3.727,0,0,1,3.44-2.192c1.855,0,3.054,1.384,3.054,3.525,0,3.069-1.71,7.019-4.816,11.121a52.407,52.407,0,0,1-12.3,11.411l-.043-.043c2.5-2.1,3.7-3.2,3.7-5.289a23.943,23.943,0,0,0-1.3-5.506c-1.031-3.391-2.314-7.609-2.314-11.522,0-3.894,1.252-6.778,3.827-8.815.3-.232.6-.428.89-.618.945-.621,1.691-1.111,1.691-2.263a2.192,2.192,0,0,0-2.322-2.193,2.381,2.381,0,0,0-2.02,1.106,2.215,2.215,0,0,0,.042,2.248,1.916,1.916,0,0,1,.973-.32.946.946,0,0,1,.962,1.008c0,.695-.591,1.032-1.806,1.032-2.009,0-4.359-.956-6.848-1.969-2.817-1.146-5.73-2.331-8.545-2.331a8.3,8.3,0,0,0-5.8,2.192V.5h230v58h-82.943a17.19,17.19,0,0,0,5.2-6.534l-.172-.086a6.6,6.6,0,0,1-4.73,1.721c-3.531,0-7.915-1.762-12.556-3.628-5.081-2.043-10.335-4.155-14.963-4.155-4.1,0-7.681,2.022-11.266,6.364l-.043-.043c1.767-2.834,4.3-4.633,6.759-6.373A27.9,27.9,0,0,0-1797.2,41.6a12.216,12.216,0,0,0,2.979-6.4l2.279-14.449a22.285,22.285,0,0,1,1.4-5.294c.941-2.079,2.248-3.133,3.886-3.133a2.612,2.612,0,0,1,2.838,2.407,2.784,2.784,0,0,1-2.6,2.968h-.068a2.712,2.712,0,0,0,.432,2.409,3.468,3.468,0,0,0,2.75,1.2,6.229,6.229,0,0,0,4.187-1.693,5.525,5.525,0,0,0,1.833-3.983,4.3,4.3,0,0,0-1.3-3.145,5.569,5.569,0,0,0-3.945-1.371,14.7,14.7,0,0,0-6.637,1.635,20.114,20.114,0,0,0-5.564,4.223,25.2,25.2,0,0,0-4.065,5.788,22.13,22.13,0,0,0-2.138,6.328l-1.633,10.32a17.7,17.7,0,0,1-4.37,9.477,35.259,35.259,0,0,0-3.026,4.326l.3.172c1.416-2.081,2.452-2.236,3.87-2.236,5.348,0,10.7,2.482,15.871,4.882,1.937.9,3.764,1.746,5.588,2.469Zm47.6-31.433v0c-1.321,2.928-5.253,4.495-9.416,6.153-4.483,1.786-9.118,3.633-10.751,7.346a3.353,3.353,0,0,0-2.15,3.053,2,2,0,0,0,2.107,2.15,2.449,2.449,0,0,0,2.13-1.231,1.855,1.855,0,0,0-.238-1.994,1.651,1.651,0,0,1-.883.293,1.009,1.009,0,0,1-.733-.3.987.987,0,0,1-.276-.682c0-.952.88-1.29,1.634-1.29,1.271,0,2.975.882,4.949,1.9,2.558,1.324,5.456,2.825,8.252,2.825a5.675,5.675,0,0,0,4.462-1.908,5.889,5.889,0,0,0,1.43-3.811,6.112,6.112,0,0,0-4.257-5.59l-.086.129a1.579,1.579,0,0,1,.9,1.291c0,2.589-4.3,3.019-8.856,3.475a30.751,30.751,0,0,0-7.871,1.427c1.79-3.285,6.139-5.007,10.345-6.673,4.454-1.763,8.66-3.429,9.779-6.786A3.3,3.3,0,0,0-1734.2,23.8a2,2,0,0,0-2.107-2.15,2.45,2.45,0,0,0-2.13,1.231,1.855,1.855,0,0,0,.237,1.994,1.654,1.654,0,0,1,.884-.293.985.985,0,0,1,1.009.98c0,.953-.88,1.291-1.634,1.291-1.271,0-2.823-.883-4.62-1.9-2.329-1.325-4.969-2.826-7.764-2.826a5.675,5.675,0,0,0-4.461,1.908,5.891,5.891,0,0,0-1.43,3.811,6.115,6.115,0,0,0,4.257,5.59l.086-.13a1.576,1.576,0,0,1-.9-1.29c0-2.578,4.107-3.016,8.455-3.479,2.759-.294,5.613-.6,7.582-1.465Zm-116.2-14.348h0a1.108,1.108,0,0,1,.873.354,1.077,1.077,0,0,1,.22.879l-3.956,24.639c-.362,2.16-.054,3.836.916,4.981.694.82,2.119,1.8,4.966,1.8a13.678,13.678,0,0,0,2.03-.158l.129-.129c-1.39-.7-.516-5.759.007-8.784l.006-.034.074-.428,3.354-20.983c.244-1.51.128-2.483-.366-3.063a3.053,3.053,0,0,0-2.473-.764,18.437,18.437,0,0,0-6.579,1.677l.13.129A2.2,2.2,0,0,1-1852.937,12.721Zm-11.567,0h0a1.108,1.108,0,0,1,.873.354,1.076,1.076,0,0,1,.22.878l-3.955,24.639c-.362,2.16-.054,3.836.916,4.982.694.82,2.12,1.8,4.966,1.8a13.678,13.678,0,0,0,2.03-.158l.129-.129c-1.39-.7-.515-5.76.007-8.785l.029-.167.051-.294,3.354-20.983c.244-1.51.128-2.483-.366-3.063a3.053,3.053,0,0,0-2.473-.764,18.422,18.422,0,0,0-6.579,1.677l.13.129A2.2,2.2,0,0,1-1864.5,12.721Zm132.268,11.094h0a1.108,1.108,0,0,1,.873.354,1.077,1.077,0,0,1,.22.879l-2.237,13.545c-.4,2.366-.13,4.133.814,5.251a5.148,5.148,0,0,0,4.131,1.5,16.192,16.192,0,0,0,3.139-.344l.129-.129c-.671-.309-.948-1.432-.846-3.432a46.129,46.129,0,0,1,.691-5.2l.069-.4,1.634-9.89c.244-1.509.128-2.483-.366-3.063a3.051,3.051,0,0,0-2.472-.764,18.4,18.4,0,0,0-6.579,1.678l.129.129A2.207,2.207,0,0,1-1732.236,23.815Zm-145.6,0h0a1.108,1.108,0,0,1,.874.354,1.076,1.076,0,0,1,.22.878l-2.236,13.545c-.4,2.366-.131,4.132.813,5.251a5.148,5.148,0,0,0,4.131,1.5,16.178,16.178,0,0,0,3.139-.344l.129-.129c-.671-.309-.947-1.432-.845-3.432a46.15,46.15,0,0,1,.691-5.2l.069-.4,1.634-9.89c.245-1.509.128-2.482-.365-3.062a3.052,3.052,0,0,0-2.472-.764,18.4,18.4,0,0,0-6.579,1.678l.129.129A2.208,2.208,0,0,1-1877.835,23.815Zm172.105,7.9h0l.171.042-1.591,6.622c-.53,2.209-.33,3.923.594,5.094.943,1.2,2.671,1.828,5,1.828a14.454,14.454,0,0,0,3.053-.3l.13-.129c-2.016-.779-1.4-6.127-.86-9.246l2.279-13.33a3.954,3.954,0,0,1-3.111,1.524,11.025,11.025,0,0,1-3.361-.772,13.346,13.346,0,0,0-4.277-.924,11.671,11.671,0,0,0-5.51,1.417,15.322,15.322,0,0,0-4.45,3.63,16.345,16.345,0,0,0-4.058,10.175,10.321,10.321,0,0,0,1.36,5.46,5.305,5.305,0,0,0,4.746,2.494,6.554,6.554,0,0,0,5.38-2.779c1.745-2.177,3.22-5.712,4.509-10.808Zm-62.006,0h0l.171.042-1.591,6.622c-.53,2.209-.33,3.923.594,5.094.943,1.2,2.671,1.828,5,1.828a14.459,14.459,0,0,0,3.054-.3l.129-.129c-2.233-.864-1.223-7.3-.86-9.246l1.247-6.751c.511-2.742.355-4.493-.49-5.51-.73-.878-1.966-1.253-4.131-1.253-.932,0-1.988.068-2.99.142l-.129.129c.637.318.834,1.592.586,3.784a44.356,44.356,0,0,1-1.059,5.461,38.507,38.507,0,0,1-2.773,8.078c-1.123,2.172-2.317,3.273-3.548,3.273a1.324,1.324,0,0,1-1.067-.444,3.572,3.572,0,0,1-.31-2.824l2.236-13.76c.244-1.51.128-2.483-.366-3.063a3.052,3.052,0,0,0-2.473-.764,18.4,18.4,0,0,0-6.579,1.678l.13.129a2.2,2.2,0,0,1,.669-.115,1.108,1.108,0,0,1,.873.354,1.077,1.077,0,0,1,.22.879l-2.108,12.857c-.277,1.737-.489,4.23.859,5.809.9,1.052,2.388,1.586,4.43,1.586a7.722,7.722,0,0,0,3.124-.575,6.972,6.972,0,0,0,2.644-2.091c1.663-2.05,3.1-5.52,4.509-10.921Zm-60.458,0h0l.172.042-1.591,6.622c-.53,2.208-.331,3.922.593,5.094.943,1.2,2.671,1.829,5,1.829a14.452,14.452,0,0,0,3.053-.3l.129-.129c-2.016-.78-1.4-6.127-.859-9.246l2.279-13.33a3.954,3.954,0,0,1-3.111,1.524,11.025,11.025,0,0,1-3.362-.772,13.346,13.346,0,0,0-4.276-.924,11.671,11.671,0,0,0-5.51,1.417,15.322,15.322,0,0,0-4.45,3.63,16.345,16.345,0,0,0-4.058,10.175,10.322,10.322,0,0,0,1.36,5.46,5.306,5.306,0,0,0,4.747,2.494,6.553,6.553,0,0,0,5.38-2.779c1.745-2.177,3.22-5.712,4.509-10.808ZM-1724.435,10.9a5.82,5.82,0,0,0-4.773,3.1c1.277,1.619.861,4.9-.043,6.322l.086.129c.129,0,.249.007.367.007a9.191,9.191,0,0,0,5.568-1.855,5.607,5.607,0,0,0,2.363-4.3A3.348,3.348,0,0,0-1724.435,10.9Zm-145.6,0a5.823,5.823,0,0,0-4.774,3.1c1.279,1.619.862,4.9-.043,6.322l.086.129c.129,0,.249.007.367.007a9.191,9.191,0,0,0,5.568-1.855,5.607,5.607,0,0,0,2.363-4.3A3.347,3.347,0,0,0-1870.033,10.9Zm157.594,32.078c-1.358,0-1.5-2.375-1.5-3.4a35.01,35.01,0,0,1,2.037-11.2,16.614,16.614,0,0,1,2.153-4.23,3.455,3.455,0,0,1,2.56-1.682,1.986,1.986,0,0,1,1.643.589c.547.657.6,1.934.163,4.27l-.473,2.624C-1706.967,36.216-1709.8,42.979-1712.438,42.979Zm-122.464,0c-1.358,0-1.5-2.375-1.5-3.4a35.015,35.015,0,0,1,2.037-11.2,16.616,16.616,0,0,1,2.153-4.23,3.456,3.456,0,0,1,2.561-1.682,1.985,1.985,0,0,1,1.643.589c.547.657.6,1.934.163,4.27l-.473,2.624C-1829.431,36.216-1832.261,42.979-1834.9,42.979Z" transform="translate(1918.25 0.25)" fill="none" stroke="#fff" stroke-width="1.5"/>
</svg>
